<svg width="16" height="16" viewBox="0 0 16 16" fill="none" xmlns="http://www.w3.org/2000/svg">
<path fill-rule="evenodd" clip-rule="evenodd" d="M11.4044 10.6129L15.2124 14.5735C15.5346 14.9085 15.5239 15.4428 15.1891 15.7649C15.0316 15.9166 14.824 16 14.6052 16C14.374 16 14.1583 15.9082 13.998 15.7416L10.161 11.751C9.07152 12.5167 7.79721 12.92 6.45999 12.92C2.89801 12.92 0 10.022 0 6.45999C0 2.89801 2.89801 0 6.45999 0C10.022 0 12.92 2.89801 12.92 6.45999C12.92 7.98455 12.3835 9.44901 11.4044 10.6129ZM11.2348 6.45999C11.2348 3.82712 9.09286 1.68522 6.45999 1.68522C3.82712 1.68522 1.68522 3.82712 1.68522 6.45999C1.68522 9.09286 3.82712 11.2348 6.45999 11.2348C9.09286 11.2348 11.2348 9.09286 11.2348 6.45999Z" fill="white"/>
</svg>
